<svg version="1.1" id="a"
	xmlns="http://www.w3.org/2000/svg"
	xmlns:xlink="http://www.w3.org/1999/xlink" x="0px" y="0px" viewBox="0 0 100 106.8" style="enable-background:new 0 0 100 106.8;" xml:space="preserve">
	<style type="text/css">
	.st1{fill:inherit;}
	</style>
	<path class="st0" d="M95.1,106.8H4.4c-0.1-0.4-0.5-0.3-0.8-0.4c-1.5-0.7-2.6-1.7-3.2-3.2c-0.1-0.3-0.1-0.6-0.4-0.8
	C0,85.2,0,68,0,50.8c0.3-0.4,0.6-0.8,0.9-1.2c3.4-4.4,6.9-8.9,10.3-13.3c0.4-0.5,0.6-1,0.6-1.7c0-9.3,0-18.6,0-28
	c0-4.2,2.5-6.6,6.6-6.6c21,0,42,0,63,0c4.2,0,6.6,2.5,6.6,6.7c0,9.3,0,18.6,0,28c0,0.7,0.2,1.2,0.6,1.7c3.5,4.4,6.9,8.9,10.3,13.3
	c0.6,0.8,0.9,1.7,0.9,2.7c0,10.2,0,20.5,0,30.7c0,5.9,0,11.8,0,17.7c0,2.6-1.3,4.5-3.7,5.6C95.9,106.5,95.4,106.4,95.1,106.8
	L95.1,106.8z M50.1,5.1c-10.5,0-21,0-31.6,0c-1.4,0-1.6,0.2-1.6,1.6c0,16.3,0,32.7,0,49c0,0.7,0.2,1,0.8,1.4
	c10.5,5.7,21,11.4,31.5,17.2c0.6,0.3,1,0.3,1.5,0c10.4-5.7,20.9-11.4,31.3-17.1c0.7-0.4,0.9-0.8,0.9-1.6c0-16.2,0-32.5,0-48.7
	c0-1.6-0.1-1.8-1.7-1.8C70.9,5.1,60.5,5.1,50.1,5.1L50.1,5.1z M44.7,77.6C31.4,70.3,18.3,63.2,5.1,56v43.1
	C18.3,91.9,31.4,84.8,44.7,77.6L44.7,77.6z M94.9,56c-13.2,7.2-26.3,14.4-39.5,21.6C68.6,84.8,81.7,92,94.9,99.2V56L94.9,56z
	 M11.2,101.6c3.2,0.2,76.4,0.1,77.3-0.1c-0.1,0-0.1-0.1-0.2-0.1c-12.6-6.9-25.2-13.8-37.8-20.7c-0.5-0.3-0.9-0.1-1.3,0.1
	c-5.1,2.8-10.2,5.6-15.3,8.3C26.4,93.3,18.9,97.4,11.2,101.6L11.2,101.6z M88.2,53.9c1.3-0.7,2.5-1.4,3.7-2c1.2-0.6,1.3-1.5,0.5-2.5
	c-1.4-1.8-2.7-3.5-4.2-5.4V53.9z M11.8,43.9c-1.8,2.3-3.5,4.5-5.1,6.6c-0.2,0.2-0.3,0.4,0.1,0.6c1.7,0.9,3.3,1.8,5.1,2.8L11.8,43.9
	L11.8,43.9z"/>
	<path class="st1" d="M22,38.1c0-15.4,12.6-27.9,28-27.9c15.4,0,28,12.6,28,28c-0.1,15.4-12.6,27.9-28,27.9
	C34.5,66.1,22,53.5,22,38.1L22,38.1z M53.9,27.4c-0.2-0.1-0.4-0.2-0.6-0.2c-4.2-1.9-8.8-0.8-11.7,2.8c-3.8,4.8-3.5,12.5,0.8,17
	c3.4,3.6,8,4,12,1.2c0.5-0.4,0.7-0.3,1,0.2c1.1,1.5,2.5,2.3,4.3,2.5c3.5,0.4,7.2-1.5,8.9-4.8c2.2-4.1,2.9-8.5,2-13
	c-2.2-10.5-13.1-17.7-23.8-15.9c-15.6,2.6-23,20.4-13.8,33.3c4,5.5,9.5,8.4,16.3,8.8c1.7,0.1,2.8-0.9,2.9-2.4c0-1.5-1-2.5-2.7-2.6
	c-0.6,0-1.1-0.1-1.7-0.2c-8.5-1.1-14.8-9.4-13.6-18c1.4-9.6,10.3-15.8,19.7-13.6C62.2,24.4,69,33.3,64.6,43
	c-0.6,1.3-1.4,2.2-2.8,2.6c-1.8,0.6-2.9-0.2-2.9-2c0-2.1,0-4.2,0-6.2c0-3.2,0.1-6.4,0-9.6c0-1.9-1.5-3.1-3.2-2.7
	C54.7,25.3,54.1,26.2,53.9,27.4L53.9,27.4z"/>
	<path class="st1" d="M53.9,37.8c0,2.2-0.5,4.2-2.1,5.8c-1.6,1.6-3.6,1.7-5.3,0.3c-3-2.5-3.4-8.1-0.8-10.9c2.4-2.7,6-2.1,7.5,1.2
	C53.7,35.4,53.9,36.6,53.9,37.8L53.9,37.8z"/>
</svg>
