<svg version="1.1" id="a"
	xmlns="http://www.w3.org/2000/svg"
	xmlns:xlink="http://www.w3.org/1999/xlink" x="0px" y="0px" viewBox="0 0 100 100" style="enable-background:new 0 0 100 100;" xml:space="preserve">
	<path d="M52.9,100h-5.9c-0.3-0.1-0.5-0.1-0.8-0.2c-7-0.5-13.7-2.3-19.8-5.7c-14-7.8-22.7-19.5-25.7-35.3C0.4,56.9,0.3,55,0,53.1
	c0-2,0-3.9,0-5.9c0.1-0.3,0.1-0.7,0.2-1C0.5,44.1,0.6,42,1.1,40C4.2,26.1,11.7,15.3,23.7,7.7c10.5-6.7,21.9-9,34.2-7
	C68.4,2.3,77.5,7,85,14.5C94.3,23.8,99.3,35,99.9,48c0.5,9.8-1.8,19-6.9,27.4c-7.9,13-19.4,21-34.4,23.8
	C56.7,99.6,54.8,99.7,52.9,100L52.9,100z M64.7,91.5c16.8-5.5,32.2-23.9,29.1-47.3C90.7,22.3,71.4,5,48.2,5.9
	C25.8,6.8,7.1,24.9,5.9,48C4.8,70.4,20.3,86.7,35.3,91.4v-7.7c-0.4,0.1-0.8,0.1-1.1,0.1c-3.5,0.5-6.7-0.3-9.3-2.7
	c-1.3-1.2-2.3-2.7-3.4-4.1c-1.2-1.6-2.6-3.1-4.8-3.3c-0.2-1.9-0.3-3.8-0.5-5.7c1.6-0.3,3.5,0.1,5.1,1c2.7,1.4,4.4,3.7,6,6.1
	c1.8,2.7,4.6,3.6,7.7,2.4c0.2-0.1,0.5-0.3,0.6-0.4c0.4-1.6,0.8-3.2,1.2-4.8c-1.7-0.7-3.6-1.3-5.3-2.1c-4.9-2.3-8.9-5.7-11.2-10.5
	c-4.3-9-3.6-17.7,1.7-26c0.2-0.3,0.3-0.8,0.3-1.2c-0.1-1.5-0.4-2.9-0.4-4.4c-0.1-2.2,0.2-4.4,0.9-6.4c0.9-2.4,2.7-3.8,4.9-3.6
	c1.2,0.1,2.4,0.2,3.4,0.7c2.6,1.1,5.1,2.4,7.6,3.7c0.6,0.3,1.1,0.5,1.8,0.3c6.2-1.6,12.4-1.6,18.6-0.1c1.1,0.3,2,0.1,3-0.5
	c2.6-1.6,5.3-3.1,8.4-3.8c3.8-0.8,5.9,0.4,7.1,4.1c1,3.3,0.9,6.7,0.3,10.1c-0.1,0.4,0,0.9,0.2,1.2c3.7,5.4,5.1,11.4,4.4,17.9
	c-0.6,5.5-2.9,10.2-6.9,14.1c-3.1,3.1-6.9,5.1-11,6.4c-0.5,0.2-1,0.3-1.5,0.5c1.4,2.7,1.7,5.4,1.6,8.3
	C64.6,84.2,64.7,87.8,64.7,91.5L64.7,91.5z M72,24c-0.6,0.1-1.1,0.2-1.6,0.4c-2.2,1.1-4.3,2.1-6.4,3.3c-1.7,1.1-3.4,1.2-5.3,0.8
	c-2.3-0.5-4.7-0.9-7.1-1.1c-3.8-0.3-7.5,0.3-11.2,1.2C39,29,37.8,28.8,36.6,28c-1.2-0.8-2.4-1.5-3.6-2.1C31.4,25,29.9,24.2,28,24
	c-0.7,2.7-0.6,5.4,0.1,8c0.4,1.5,0.3,2.8-0.7,4c-2.5,3.1-3.8,6.7-4.1,10.7c-0.4,5.6,1.1,10.5,5.2,14.5c3.4,3.4,7.7,5.1,12.3,6
	c2,0.4,4,0.7,6.2,1c-1.2,1.8-2.3,3.5-3.5,5.1c-1.6,2-2.2,4.2-2.2,6.7c0,4.1,0,8.2,0,12.3c0,0.3,0,0.6,0,1c5.9,1.2,11.7,1.2,17.5,0
	c0-0.2,0-0.4,0-0.6c0-4.4,0-8.7,0-13.1c0-0.9,0-1.9-0.3-2.7c-0.6-1.4-1.4-2.8-2.2-4.1c-1-1.5-2-3-3.1-4.6c0.6-0.1,1-0.2,1.4-0.2
	c3.4-0.5,6.9-1,10.1-2.3c4.5-1.8,8.2-4.7,10.3-9.2c3.1-6.9,2.4-13.5-1.9-19.7c-1.1-1.6-1.6-3-1-5C72.6,29.3,72.6,26.7,72,24L72,24z" />
</svg>
