<svg id="a"
  xmlns="http://www.w3.org/2000/svg" viewBox="0 0 100 99.24">
  <g id="b">
    <g>
      <path d="M33.01,99.24c0-.36-.02-.72-.02-1.07,0-21.94,0-43.87,0-65.81,0-.36,0-.71,0-1.15h24.77v3.73c.41-.31,.66-.49,.9-.67,13.26-9.89,32.35-5.19,39.11,9.65,1.49,3.27,2.23,6.71,2.24,10.31,0,15,0,30.01,0,45.01h-25.98c.02-.39,.07-.77,.07-1.16,0-7.19,0-14.39-.02-21.58,0-4.95,.06-9.9-.05-14.84-.1-4.88-4.87-8.3-9.58-6.99-3.49,.97-5.6,3.92-5.6,7.86,0,11.82,0,23.63,0,35.45,0,.42-.04,.84-.06,1.26h-25.78Zm19.98-5.9c0-.5,0-.91,0-1.33,0-9.93-.03-19.85,0-29.78,.03-8.9,7.86-15.24,16.44-13.38,6.14,1.33,10.46,6.78,10.48,13.31,.03,9.96,.02,19.92,.03,29.88,0,.41,0,.83,0,1.28h14.16c.01-.28,.03-.5,.03-.73,0-12.89,.01-25.77-.02-38.66,0-1.32-.18-2.67-.49-3.96-2.79-11.83-15.77-18.28-27.09-13.51-4,1.68-7.09,4.41-9.39,8.08-.21,.33-.55,.78-.86,.79-1.42,.08-2.84,.04-4.36,.04v-8.31h-13.02v56.28h14.08Z"/>
      <path d="M1.56,99.24c0-.39-.02-.78-.02-1.17,0-21.87,0-43.74,0-65.6v-1.29H27.4c0,.4,0,.75,0,1.1,0,22,0,44,0,66,0,.32-.04,.65-.06,.97H1.56ZM7.47,37.04v56.28h14.01V37.04H7.47Z"/>
      <path d="M0,12.92c.19-.79,.34-1.58,.56-2.36C2.47,3.82,9.23-.77,15.93,.11c7.45,.98,12.87,6.81,12.99,14,.13,7.34-4.95,13.49-12.1,14.67C8.9,30.08,1.47,24.72,.18,16.77c-.03-.18-.12-.36-.18-.54,0-1.11,0-2.21,0-3.32Zm23.07,1.56c-.01-4.76-3.89-8.61-8.65-8.58-4.69,.02-8.55,3.9-8.55,8.6,0,4.76,3.85,8.61,8.62,8.61,4.78,0,8.6-3.84,8.59-8.62Z"/>
    </g>
  </g>
</svg>