<svg id="sun_icon"
	xmlns="http://www.w3.org/2000/svg" viewBox="0 0 380.51 380.77">
	<path d="M378.88,215.51c-2,14.8-5.4,27.2-8.8,36.9-5,14.4-11.7,28.2-20.2,41.3-8.7,13.6-19,25.9-31,36.7-12.3,11.2-25.7,20.8-40.5,28.5-8.8,4.6-17.8,8.4-27.1,11.6-11.7,4-21.7,6.1-28.1,7.3-14.1,2.5-37.2,5-64.3,.4-4.2-.7-12-2.2-21.6-4.9-14.2-4.1-25.3-9.1-32.3-12.6-10.4-5.2-20.3-11.3-29.7-18.4-20.6-15.5-37.3-34.5-50.2-56.8C6.88,253.91,2.58,225.41,1.58,218.01-.02,206.51-.12,196.81,.08,189.91c-.1-16.7,2-30.7,4.3-41.2,1.4-6.2,4.4-18.6,10.9-33.6,2.8-6.6,7.7-16.8,15.2-28.3,5.7-8.8,12.2-17.2,19.5-25.1,13.2-14.4,28.3-26.4,45.3-36.1,13.9-8,28.4-14.1,43.6-18.4,5-1.4,14.3-3.8,26.2-5.4C173.88,.61,181.58,.21,188.08,0c12.3-.1,22.5,1,30.1,2.1,8.3,1.3,33.4,5.6,60.7,20,14.6,7.7,28,17.2,40.2,28.3,14.2,13.2,26.2,28.3,36,45.3,7.4,12.8,13.2,26.1,17.4,40,2.4,7.9,4.9,17.9,6.4,29.7,2.7,20.6,1.6,38,0,50.1ZM12.28,191.11c.7,48.6,18.1,90.9,53,125.5,34.4,34.1,76.4,51.5,124.8,51.5s90.1-17.3,124.6-51.2c35.1-34.6,53.1-77.2,53.2-126.3,0-49-17.8-91.5-52.7-126.1C280.48,30.21,238.38,12.71,189.88,12.81c-48.6,.1-90.8,17.6-125.3,52.1C30.08,99.51,12.88,141.71,12.28,191.11h0Z"/>
	<path d="M190.18,261.71c-39.3,.1-71.2-31.8-71.5-70.7-.3-39.9,31.9-71.6,70.6-71.9,40.2-.3,72,32.1,72,71.2,.1,39-31.3,71.3-71.1,71.4h0Zm0-12.7c31.8,.5,58.8-26.7,58.6-58.8-.2-31.7-26.7-58.4-58.7-58.4s-58.6,27.1-58.6,58.5c-.1,32.4,26.9,59.1,58.7,58.7Z"/>
	<path d="M290.18,126.51c3.4,.1,5.2,1.3,6,4.2,.8,2.7-.1,5.7-2.5,7.1-6.3,3.7-12.5,7.4-18.9,10.9-3.8,2.1-7.3,1.2-9.1-1.9-1.6-2.6-1.1-5.6,1-7.8,1.2-1.2,2.6-1.8,4-2.6,5.1-3,10.2-6,15.3-9,1.6-.6,3-1,4.2-.9h0Z"/>
	<path d="M253.98,290.51c0,3.2-1.2,5.1-3.9,5.9-3,.9-6,.1-7.5-2.5-3.7-6.1-7.3-12.3-10.7-18.6-2.9-5.3-.1-10.3,5.4-10.2,2.6,.1,4.1,1.6,5.3,3.5,3.6,6,7.1,12.1,10.6,18.2,.6,1.3,.9,2.5,.8,3.7h0Z"/>
	<path d="M149.38,271.51c.1,1.6-.6,3.2-1.5,4.7-3.3,5.6-6.6,11.3-9.9,16.9-2.1,3.5-5.6,4.7-8.7,3-3.2-1.8-4.2-5.7-2.2-9.3,.7-1.3,1.5-2.6,2.2-3.8,2.7-4.7,5.4-9.4,8.2-14,2.7-4.4,7.4-5.1,10.5-1.6,1.1,1.2,1.4,1.9,1.4,4.1h0Z"/>
	<path d="M271.28,231.11c1.4-.1,2.8,.4,4.1,1.2,6.1,3.5,12.1,7.1,18.2,10.6,1.6,.9,2.5,2.3,2.7,4.1,.3,2.4,.2,4.8-2.1,6.3-2.2,1.5-4.8,1.7-7.1,.4-6.6-3.6-13.1-7.4-19.5-11.3-2.7-1.7-3.4-4.3-2.4-7.1,.9-2.7,3-4.2,6.1-4.2Z"/>
	<path d="M126.08,90.71c0-3.1,1.6-5.5,4-6.3,2.8-.9,6,.1,7.5,2.5,3.6,6.1,7.2,12.3,10.8,18.5,.6,1,.9,2,1,3.1,.3,3-1.1,5.6-3.6,6.6-2.5,1.1-5.5,.4-7.3-1.9-1.4-1.7-2.4-3.7-3.6-5.6-2.5-4.2-4.9-8.5-7.4-12.8-.8-1.3-1.5-2.7-1.4-4.1h0Z"/>
	<path d="M109.28,231.11c2.7-.1,4.4,1.3,5.4,3.6,1.1,2.4,.6,4.9-1.2,6.8-1.7,1.7-3.9,2.6-5.9,3.8-4.3,2.6-8.8,5.1-13.1,7.6-1.3,.8-2.6,1.3-4.2,1.4-3,.1-5.6-1.6-6.3-4.2-.9-3,.1-5.9,2.7-7.4,5.9-3.5,11.9-7,17.9-10.4,.4-.2,.9-.4,1.3-.7,1.1-.4,2.2-.5,3.4-.5h0Z"/>
	<path d="M83.78,132.51c0-4.8,4.6-7.5,9.3-5.4,1.5,.7,2.8,1.6,4.2,2.4,4.8,2.8,9.7,5.5,14.4,8.4,3.9,2.4,4.7,6.5,2.1,9.8-1.9,2.4-5,2.9-8.4,1.2-3.6-1.9-7.1-4-10.6-6.1-2.6-1.5-5.1-3.1-7.7-4.5-2.4-1.3-3.4-3.2-3.3-5.8h0Z"/>
	<path d="M248.08,84.21c4.8,.1,7.4,4.7,5.3,9.4-.7,1.4-1.6,2.8-2.4,4.2-2.7,4.7-5.4,9.4-8.2,14.1-1.2,1.9-2.6,3.6-5.1,3.8-5.3,.4-8.5-4.5-6-9.6,1.8-3.7,4-7.1,6-10.6,1.5-2.7,3.2-5.3,4.7-8,1.2-2.5,3.2-3.3,5.7-3.3h0Z"/>
	<path d="M196.18,295.01c0,3.7,.1,7.4,0,11.1-.1,3.8-2.4,6.1-5.9,6.1-3.8,.1-6.2-2.2-6.2-6.2-.1-7.3-.1-14.5,0-21.8,0-4,2.4-6.3,6.1-6.3s6,2.3,6,6.4c0,3.5,0,7.1,0,10.7h0Z"/>
	<path d="M294.48,196.51c-3.6,0-7.2,.1-10.7,0-4-.1-6.3-2.5-6.2-6.2,.1-3.5,2.4-5.9,6.2-5.9,7.4-.1,14.8-.1,22.2,0,3.8,0,6,2.4,6,6s-2.2,6-6,6.1c-3.9,.1-7.7,0-11.5,0h0Z"/>
	<path d="M85.58,184.31c3.6,0,7.2-.1,10.7,0,4,.1,6.2,2.4,6.3,6.1,.1,3-3,6.2-6.5,6.1-7.1-.3-14.3,0-21.5-.1-4.1,0-6.3-2.3-6.5-6-.2-3.2,2.9-6.6,6.7-6.3,3.6,.5,7.2,.3,10.8,.2h0Z"/>
	<path d="M183.98,85.71c0-3.6-.1-7.2,0-10.7,.1-4,2.4-6.4,6.1-6.4s6,2.3,6,6.4c.1,7.3,.1,14.5,0,21.8,0,3.8-2.3,6.1-5.9,6.2-3.8,.1-6.1-2.2-6.2-6.2-.1-3.7,0-7.4,0-11.1h0Z"/>
</svg>